<?xml version="1.0"?><svg id="icon" style="enable-background:new 0 0 512 512;" version="1.1" viewBox="0 0 512 512" xml:space="preserve" xmlns="http://www.w3.org/2000/svg" xmlns:xlink="http://www.w3.org/1999/xlink"><g><path d="M404.3081055,395.7382813c-38.0117188,38.9033203-88.8105469,60.328125-143.0375977,60.328125   c-110.3168945,0-200.0664063-89.7490234-200.0664063-200.0664063S150.9536133,55.9335938,261.2705078,55.9335938   c54.2275391,0,105.0258789,21.4257813,143.0375977,60.3291016c2.7026367,2.7675781,7.1337891,2.8173828,9.8989258,0.1152344   s2.8164063-7.1337891,0.1147461-9.8984375c-40.6679688-41.6230469-95.0224609-64.5458984-153.0512695-64.5458984   C143.2338867,41.9335938,47.2041016,137.9628906,47.2041016,256c0,57.1796875,22.2670898,110.9365234,62.6987305,151.3681641   c40.4321289,40.4316406,94.1884766,62.6982422,151.3676758,62.6982422c58.0283203,0,112.3828125-22.921875,153.0512695-64.5449219   c2.7016602-2.7646484,2.6503906-7.1962891-0.1147461-9.8984375   C411.4418945,392.9228516,407.0107422,392.9716797,404.3081055,395.7382813z"/><path d="M457.7958984,210.8623047H353.3535156v-58.453125c0-2.6132813-1.4555664-5.0087891-3.7744141-6.2128906   c-2.3183594-1.2021484-5.1152344-1.0146484-7.2529297,0.4873047L195.0527344,250.2753906   c-1.8637695,1.3115234-2.9726563,3.4472656-2.9726563,5.7255859s1.1088867,4.4150391,2.9726563,5.7255859l147.2734375,103.5898438   c1.2016602,0.8447266,2.6113281,1.2744141,4.027832,1.2744141c1.1030273,0,2.2099609-0.2607422,3.2250977-0.7871094   c2.3188477-1.2041016,3.7744141-3.5996094,3.7744141-6.2128906v-58.453125h104.4423828c3.8662109,0,7-3.1337891,7-7v-76.2753906   C464.7958984,213.9960938,461.6621094,210.8623047,457.7958984,210.8623047z M450.7958984,287.1376953H346.3535156   c-3.8662109,0-7,3.1337891-7,7v51.9716797l-128.1064453-90.1083984l128.1064453-90.109375v51.9707031c0,3.8662109,3.1337891,7,7,7   h104.4423828V287.1376953z"/></g></svg>